<svg width="1024" height="1024" viewBox="0 0 1024 1024" fill="none" xmlns="http://www.w3.org/2000/svg">
  <!-- Background -->
  <defs>
    <linearGradient id="bgGrad" x1="0%" y1="0%" x2="100%" y2="100%">
      <stop offset="0%" style="stop-color:#6750A4;stop-opacity:1" />
      <stop offset="100%" style="stop-color:#8B5CF6;stop-opacity:1" />
    </linearGradient>
  </defs>
  
  <rect width="1024" height="1024" rx="180" fill="url(#bgGrad)"/>
  
  <!-- Minimal calendar + flow design -->
  <g transform="translate(512, 512)">
    <!-- Single clean calendar - much larger -->
    <rect x="-280" y="-220" width="560" height="380" rx="40" fill="white"/>
    
    <!-- Calendar header -->
    <rect x="-280" y="-220" width="560" height="90" rx="40" fill="white"/>
    <rect x="-280" y="-150" width="560" height="20" fill="white"/>
    
    <!-- Calendar binding holes -->
    <g fill="#6750A4">
      <circle cx="-200" cy="-195" r="18"/>
      <circle cx="-100" cy="-195" r="18"/>
      <circle cx="0" cy="-195" r="18"/>
      <circle cx="100" cy="-195" r="18"/>
      <circle cx="200" cy="-195" r="18"/>
    </g>
    
    <!-- Simple calendar dots - much larger -->
    <g fill="#6750A4" opacity="0.4">
      <!-- Week 1 -->
      <circle cx="-200" cy="-80" r="18"/>
      <circle cx="-100" cy="-80" r="18"/>
      <circle cx="0" cy="-80" r="18"/>
      <circle cx="100" cy="-80" r="18"/>
      <circle cx="200" cy="-80" r="18"/>
      
      <!-- Week 2 -->
      <circle cx="-200" cy="-10" r="18"/>
      <circle cx="-100" cy="-10" r="18"/>
      <circle cx="0" cy="-10" r="18"/>
      <circle cx="100" cy="-10" r="18"/>
      <circle cx="200" cy="-10" r="18"/>
      
      <!-- Week 3 -->
      <circle cx="-200" cy="60" r="18"/>
      <circle cx="-100" cy="60" r="18"/>
      <circle cx="0" cy="60" r="18"/>
      <circle cx="100" cy="60" r="18"/>
      <circle cx="200" cy="60" r="18"/>
      
      <!-- Week 4 -->
      <circle cx="-200" cy="130" r="18"/>
      <circle cx="-100" cy="130" r="18"/>
      <circle cx="0" cy="130" r="18"/>
      <circle cx="100" cy="130" r="18"/>
      <circle cx="200" cy="130" r="18"/>
    </g>
    
    <!-- Highlighted events - much larger -->
    <g fill="#8B5CF6">
      <circle cx="-100" cy="-80" r="18"/>
      <circle cx="100" cy="-10" r="18"/>
      <circle cx="0" cy="60" r="18"/>
      <circle cx="-200" cy="130" r="18"/>
    </g>
    
    <!-- Simple flow line - larger and positioned lower -->
    <path d="M-350 280 Q0 240 350 280" 
          stroke="white" stroke-width="20" fill="none" 
          stroke-linecap="round" opacity="0.9"/>
    <polygon points="320,268 360,280 320,292" fill="white" opacity="0.9"/>
  </g>
</svg>
