<svg width="1024" height="1024" viewBox="0 0 1024 1024" fill="none" xmlns="http://www.w3.org/2000/svg">
  <!-- Background -->
  <defs>
    <linearGradient id="bgGrad" x1="0%" y1="0%" x2="100%" y2="100%">
      <stop offset="0%" style="stop-color:#6750A4;stop-opacity:1" />
      <stop offset="100%" style="stop-color:#8B5CF6;stop-opacity:1" />
    </linearGradient>
  </defs>
  
  <rect width="1024" height="1024" rx="180" fill="url(#bgGrad)"/>
  
  <!-- Abstract flow design -->
  <g transform="translate(512, 512)">
    <!-- Flow nodes -->
    <g fill="white">
      <circle cx="-150" cy="-80" r="40"/>
      <circle cx="0" cy="-80" r="40"/>
      <circle cx="150" cy="-80" r="40"/>
      
      <circle cx="-75" cy="40" r="35"/>
      <circle cx="75" cy="40" r="35"/>
      
      <circle cx="0" cy="140" r="30"/>
    </g>
    
    <!-- Flow connections -->
    <g stroke="white" stroke-width="12" opacity="0.7" stroke-linecap="round">
      <line x1="-120" y1="-60" x2="-95" y2="10"/>
      <line x1="-30" y1="-60" x2="-55" y2="10"/>
      <line x1="30" y1="-60" x2="55" y2="10"/>
      <line x1="120" y1="-60" x2="95" y2="10"/>
      
      <line x1="-55" y1="70" x2="-15" y2="115"/>
      <line x1="55" y1="70" x2="15" y2="115"/>
    </g>
    
    <!-- Inner icons -->
    <g fill="#6750A4">
      <!-- Calendar icons in top nodes -->
      <rect x="-165" y="-90" width="30" height="20" rx="3"/>
      <rect x="-15" y="-90" width="30" height="20" rx="3"/>
      <rect x="135" y="-90" width="30" height="20" rx="3"/>
      
      <!-- Flow indicators in middle -->
      <polygon points="-85,35 -65,40 -85,45"/>
      <polygon points="65,35 85,40 65,45"/>
      
      <!-- Check mark in bottom -->
      <path d="M-8,135 L-3,142 L8,130" stroke="#6750A4" stroke-width="4" fill="none" stroke-linecap="round"/>
    </g>
  </g>
</svg>
