<svg width="1024" height="1024" viewBox="0 0 1024 1024" fill="none" xmlns="http://www.w3.org/2000/svg">
  <!-- Background -->
  <defs>
    <linearGradient id="bgGrad" x1="0%" y1="0%" x2="100%" y2="100%">
      <stop offset="0%" style="stop-color:#6750A4;stop-opacity:1" />
      <stop offset="100%" style="stop-color:#8B5CF6;stop-opacity:1" />
    </linearGradient>
  </defs>
  
  <rect width="1024" height="1024" rx="180" fill="url(#bgGrad)"/>
  
  <!-- Simple block flow design -->
  <g transform="translate(512, 512)">
    <!-- Top row of event blocks -->
    <g fill="white" opacity="0.9">
      <rect x="-240" y="-120" width="120" height="60" rx="12"/>
      <rect x="-80" y="-120" width="120" height="60" rx="12"/>
      <rect x="80" y="-120" width="120" height="60" rx="12"/>
    </g>
    
    <!-- Flow arrows -->
    <g stroke="white" stroke-width="8" fill="white" opacity="0.8">
      <line x1="-120" y1="-90" x2="-100" y2="-90"/>
      <polygon points="-105,-95 -95,-90 -105,-85"/>
      
      <line x1="40" y1="-90" x2="60" y2="-90"/>
      <polygon points="55,-95 65,-90 55,-85"/>
    </g>
    
    <!-- Center event block (larger) -->
    <rect x="-100" y="-20" width="200" height="80" rx="16" fill="white"/>
    <rect x="-80" y="0" width="160" height="8" rx="4" fill="#6750A4" opacity="0.7"/>
    <rect x="-80" y="20" width="120" height="8" rx="4" fill="#6750A4" opacity="0.5"/>
    <rect x="-80" y="40" width="100" height="8" rx="4" fill="#6750A4" opacity="0.3"/>
    
    <!-- Connecting lines to center -->
    <g stroke="white" stroke-width="6" opacity="0.6">
      <line x1="-180" y1="-60" x2="-180" y2="-40"/>
      <line x1="-180" y1="-40" x2="-100" y2="-40"/>
      <line x1="-100" y1="-40" x2="-100" y2="-20"/>
      
      <line x1="-20" y1="-60" x2="-20" y2="-40"/>
      <line x1="-20" y1="-40" x2="0" y2="-40"/>
      <line x1="0" y1="-40" x2="0" y2="-20"/>
      
      <line x1="140" y1="-60" x2="140" y2="-40"/>
      <line x1="140" y1="-40" x2="100" y2="-40"/>
      <line x1="100" y1="-40" x2="100" y2="-20"/>
    </g>
    
    <!-- Bottom output arrow -->
    <g stroke="white" stroke-width="8" fill="white" opacity="0.8">
      <line x1="0" y1="60" x2="0" y2="120"/>
      <polygon points="-8,110 0,120 8,110"/>
    </g>
  </g>
</svg>
